<?xml version="1.0" encoding="utf-8"?>
<!-- Generator: Adobe Illustrator 19.0.0, SVG Export Plug-In . SVG Version: 6.00 Build 0)  -->
<svg version="1.1" id="Layer_1" xmlns="http://www.w3.org/2000/svg" xmlns:xlink="http://www.w3.org/1999/xlink" x="0px" y="0px"
	 viewBox="0 0 112 112" style="enable-background:new 0 0 112 112;" xml:space="preserve">
<style type="text/css">
	.st0{fill:#2980B9;}
	.st1{fill:#FFFFFF;}
</style>
<circle id="XMLID_1_" class="st0" cx="55.5" cy="56.4" r="55.5"/>
<g id="XMLID_40_">
	<path id="XMLID_38_" class="st1" d="M67.4,44.1L67.4,44.1l15.2-24c0,0,1.1-1.5,0.9-2.7c-0.1-0.5-0.4-0.9-0.9-1.2
		c-0.6-0.4-1.2-0.5-1.7-0.3c-1.2,0.3-1.8,1.7-1.8,1.8l0,0L63.6,41.6l-4.8,4.2c1.7,1.6,4.3,3.3,6.7,4.3L67.4,44.1z"/>
	<path id="XMLID_3_" class="st1" d="M57.8,46c-0.1-0.1-0.2-0.2-0.4-0.2c0,0-0.1,0-0.1,0c-0.8,0.1-2,1.1-2.8,2.3
		c-0.3,0.4-25.4,36-26.5,41.6c-0.3,1.6,1.5,3.9,4.3,5.7c2.2,1.4,5.1,2.3,6.6,1.2c3.9-2.9,26.2-41.3,26.5-41.7
		c0.8-1.3,1.2-2.7,0.9-3.5c-0.1-0.2-0.2-0.3-0.4-0.4C63.2,50.2,59.7,48,57.8,46z"/>
</g>
</svg>
