<?xml version="1.0" encoding="utf-8"?>
<!-- Generator: Adobe Illustrator 19.0.0, SVG Export Plug-In . SVG Version: 6.00 Build 0)  -->
<svg version="1.1" id="Layer_1" xmlns="http://www.w3.org/2000/svg" xmlns:xlink="http://www.w3.org/1999/xlink" x="0px" y="0px"
	 viewBox="0 0 112 112" style="enable-background:new 0 0 112 112;" xml:space="preserve">
<style type="text/css">
	.st0{fill:#FFFFFF;}
	.st1{fill:#2980B9;}
</style>
<circle id="XMLID_1_" class="st0" cx="56.2" cy="56.5" r="55.5"/>
<g id="XMLID_3_">
	<path id="XMLID_20_" class="st1" d="M48.1,87.3c2.6,0.7,5.3,1.1,8.1,1.1C73.8,88.3,88,74,88,56.5c0-14.8-10.1-27.2-23.8-30.8
		c-0.3,0.1-0.5,0.1-0.8,0.2l-0.1-0.5c-0.4-0.1-0.8-0.2-1.2-0.3v0.1l0,0C60,25.6,41.8,29.5,36,51c-4.7,17.5,2.6,31.7,9.6,35.2
		l-0.1,0.1c0.6,0.2,1.3,0.4,1.9,0.6l0.1-0.1C47.7,87.1,47.9,87.2,48.1,87.3z M61.1,26.1l0.2,0.5c-0.7,0.3-1.4,0.6-2.1,0.9L59,27
		C59.7,26.7,60.4,26.4,61.1,26.1z M56.9,28l0.3,0.5c-0.7,0.4-1.3,0.7-2,1.1l-0.3-0.5C55.5,28.8,56.2,28.4,56.9,28z M52.9,30.4
		l0.3,0.5c-0.6,0.4-1.2,0.9-1.8,1.4L51,31.8C51.6,31.4,52.3,30.9,52.9,30.4z M49.3,33.4l0.4,0.4c-0.6,0.5-1.1,1.1-1.6,1.6L47.6,35
		C48.2,34.4,48.7,33.9,49.3,33.4z M43.3,40.5l0.5,0.3c-0.4,0.6-0.8,1.3-1.2,2l-0.5-0.3C42.5,41.8,42.9,41.1,43.3,40.5z M38.7,50.8
		c0.2-0.7,0.4-1.3,0.6-2l0.5,0.2c-0.2,0.6-0.4,1.3-0.6,2l-0.1,0.2L38.5,51L38.7,50.8z M38,53.3l0.6,0.1c-0.2,0.7-0.3,1.5-0.5,2.2
		l-0.6-0.1C37.7,54.8,37.8,54.1,38,53.3z M37.2,57.9l0.6,0.1c-0.1,0.8-0.2,1.5-0.2,2.3H37C37,59.4,37.1,58.6,37.2,57.9z M36.8,63.2
		c0-0.2,0-0.4,0-0.6h0.6c0,0.2,0,0.4,0,0.6c0,0.6,0,1.1,0,1.7h-0.6C36.8,64.3,36.8,63.7,36.8,63.2z M37,67.2l0.6-0.1
		c0.1,0.8,0.2,1.5,0.3,2.3l-0.6,0.1C37.2,68.7,37.1,67.9,37,67.2z M38.4,74c-0.2-0.7-0.4-1.5-0.6-2.2l0.6-0.1
		c0.2,0.7,0.4,1.5,0.6,2.2L38.4,74z M40,78.3c-0.3-0.7-0.6-1.4-0.9-2.1l0.5-0.2c0.3,0.7,0.6,1.4,0.9,2.1L40,78.3z M40.1,46.7
		c0.3-0.7,0.6-1.4,0.9-2.1l0.5,0.2c-0.3,0.7-0.6,1.4-0.9,2.1L40.1,46.7z M42.3,82.4c-0.4-0.6-0.8-1.3-1.2-2l0.5-0.3
		c0.4,0.7,0.8,1.3,1.2,1.9L42.3,82.4z M45.4,86c-0.6-0.5-1.1-1.1-1.6-1.7l0.4-0.4c0.5,0.6,1,1.2,1.6,1.6L45.4,86z M45.1,38.9
		l-0.5-0.3c0.5-0.6,0.9-1.2,1.4-1.8l0.4,0.4C46,37.7,45.6,38.3,45.1,38.9z"/>
	<path id="XMLID_4_" class="st1" d="M34.9,50.9c5-18.4,18.8-24.3,24.6-26.1c-1-0.1-2-0.2-3-0.2c-0.6,0.2-1.2,0.4-1.8,0.7l-0.2-0.5
		c0.1,0,0.2-0.1,0.3-0.1c-16.9,0.7-30.5,14.7-30.5,31.8c0,10.3,4.9,19.5,12.5,25.3l0.2-0.1c0.1,0.2,0.2,0.4,0.4,0.5
		c1.3,1,2.7,1.8,4.1,2.6C35.6,78.8,30.8,66,34.9,50.9z M52.4,25.8l0.3,0.5c-0.7,0.3-1.4,0.7-2,1.1l-0.3-0.5
		C51,26.5,51.7,26.1,52.4,25.8z M48.3,28.1l0.3,0.5c-0.6,0.4-1.3,0.9-1.9,1.3l-0.3-0.5C47.1,29,47.7,28.5,48.3,28.1z M44.6,30.9
		l0.4,0.4c-0.6,0.5-1.1,1-1.7,1.6l-0.4-0.4C43.5,31.9,44,31.4,44.6,30.9z M41.3,34.2l0.4,0.4c-0.5,0.6-1,1.2-1.5,1.8L39.8,36
		C40.3,35.3,40.8,34.7,41.3,34.2z M38.4,37.8l0.5,0.3c-0.4,0.6-0.8,1.3-1.2,1.9l-0.5-0.3C37.6,39.1,38,38.5,38.4,37.8z M36,41.8
		l0.5,0.3c-0.3,0.7-0.7,1.4-1,2.1L35,43.9C35.4,43.2,35.7,42.5,36,41.8z M34.1,46.1l0.5,0.2c-0.3,0.7-0.5,1.4-0.8,2.2l-0.5-0.2
		C33.6,47.5,33.9,46.8,34.1,46.1z M31.7,55l0.6,0.1c-0.1,0.8-0.2,1.5-0.3,2.3l-0.6-0.1C31.5,56.6,31.6,55.8,31.7,55z M31.2,59.7h0.6
		c0,0.8-0.1,1.5-0.1,2.3h-0.6C31.2,61.2,31.2,60.4,31.2,59.7z M31.2,64.3h0.6c0,0.8,0.1,1.5,0.2,2.3l-0.6,0.1
		C31.3,65.9,31.2,65.1,31.2,64.3z M32.2,71.2c-0.2-0.7-0.3-1.5-0.5-2.3l0.6-0.1c0.1,0.8,0.3,1.5,0.4,2.3L32.2,71.2z M32.2,52.8
		c0.1-0.6,0.3-1.1,0.4-1.7l0.1-0.5l0.6,0.1l-0.1,0.5c-0.1,0.6-0.3,1.1-0.4,1.7L32.2,52.8z M33.5,75.7c-0.3-0.7-0.5-1.5-0.7-2.2
		l0.6-0.2c0.2,0.7,0.5,1.5,0.7,2.2L33.5,75.7z M35.4,80c-0.4-0.7-0.7-1.4-1-2.1l0.5-0.2c0.3,0.7,0.7,1.4,1,2.1L35.4,80z"/>
</g>
</svg>
