<?xml version="1.0" encoding="utf-8"?>
<!-- Generator: Adobe Illustrator 19.0.0, SVG Export Plug-In . SVG Version: 6.00 Build 0)  -->
<svg version="1.1" id="Layer_1" xmlns="http://www.w3.org/2000/svg" xmlns:xlink="http://www.w3.org/1999/xlink" x="0px" y="0px"
	 viewBox="0 0 112 112" style="enable-background:new 0 0 112 112;" xml:space="preserve">
<style type="text/css">
	.st0{fill:#FFFFFF;}
	.st1{fill:#2980B9;}
</style>
<circle id="XMLID_1_" class="st0" cx="55.9" cy="55.7" r="55.5"/>
<g id="XMLID_2_">
	<path id="XMLID_32_" class="st1" d="M73.9,23.7c0.1,0.7,0.2,1.3,0.3,2.1c4.8,0,9.7,0,14.8,0c-0.1,1.6-0.2,3.1-0.3,4.6
		c-0.6,5.4-1.8,10.6-4.2,15.4c-1.9,3.8-4.7,6.8-8.6,8.7c-3.1,1.5-6.3,3-9.4,4.5c-0.7,0.3-1.2,0.8-1.8,1.3c-1.6,1.2-3.3,2.4-4.9,3.6
		c-0.3,0.2-0.6,0.6-0.6,0.9c0,3.2,0,6.5,0,9.7c0,2.9,1.5,4.8,4.1,6c0.3,0.1,0.5,0.2,0.7,0.5c-5.3,0-10.7,0-16,0v-0.1
		c0.3-0.1,0.5-0.2,0.8-0.3c2.5-1.1,4-3,4-5.9c0-3.3,0-6.6,0-9.9c0-0.3-0.4-0.7-0.7-1c-1.4-1.1-2.9-2.1-4.3-3.1
		c-0.9-0.7-1.8-1.5-2.8-2c-2.6-1.3-5.3-2.6-8-3.8c-4.6-2.1-7.9-5.6-10-10.2c-2.6-5.8-3.7-11.8-4-18.1c0-0.2,0-0.4,0.1-0.8
		c4.9,0,9.8,0,14.6,0c0.1-0.8,0.2-1.5,0.3-2.1C50.1,23.7,62,23.7,73.9,23.7z M27.5,30.2c0.6,2.8,1.1,5.5,1.8,8.1
		c1.6,6.4,5.3,11,11.2,13.9c0.6,0.3,1.2,0.4,1.6,0.5c-1.1-3.7-2.4-7.3-3.1-11s-0.9-7.6-1.4-11.5C34.5,30.2,31.2,30.2,27.5,30.2z
		 M84.4,30.1c-3.5,0-6.8,0-10.3,0c0.2,7.9-1.3,15.3-4.5,22.6c0.6-0.1,1-0.1,1.3-0.3c3.4-1.6,6.5-3.7,8.7-6.9
		C82.6,41,83.7,35.7,84.4,30.1z"/>
	<path id="XMLID_31_" class="st1" d="M66.6,83.3c0,2.8,0,5.5,0,8.3c-7.8,0-15.5,0-23.2,0c0-2.8,0-5.5,0-8.3
		C51.1,83.3,58.9,83.3,66.6,83.3z"/>
</g>
</svg>
